Patient4_TMGait_0pt2_03_left_08_GRF.mot
version=1
nRows=32
nColumns=19
inDegrees=no
endheader
time	F1x	F1y	F1z	M1x	M1y	M1z	F2x	F2y	F2z	M2x	M2y	M2z	EC1x	EC1y	EC1z	EC2x	EC2y	EC2z
15.96	-2.4711	4.121	1.255	-1.1112	-1.5006	3.2167	-11.1838	717.1276	-43.1134	233.1775	44.0149	719.3785	-0.0592	0.0182	-0.0073	-0.0462	0.0165	0.9585
15.9812	-1.7075	2.7411	0.88168	-0.73738	-1.0879	2.1393	-10.563	745.6711	-40.6264	242.6349	41.6443	746.6205	-0.0592	0.0182	-0.0073	-0.0462	0.0165	0.9585
16.0024	-1.0525	1.5741	0.55587	-0.42364	-0.72685	1.2287	-10.0615	777.834	-37.9141	253.3958	38.9617	777.1071	-0.0592	0.0182	-0.0073	-0.0462	0.0165	0.9585
16.0236	-0.54628	0.69381	0.30349	-0.19055	-0.44286	0.54424	-9.6927	810.7713	-35.239	264.4896	36.2069	808.0287	-0.0592	0.0182	-0.0073	-0.0462	0.0165	0.9585
16.0449	-0.18969	0.098944	0.12735	-0.037029	-0.2374	0.087746	-9.4115	841.1798	-32.8694	274.7639	33.6363	836.1495	-0.0592	0.0182	-0.0073	-0.0462	0.0165	0.9585
16.0661	0.038379	-0.255	0.018854	0.050113	-0.10203	-0.17531	-9.1317	865.8901	-31.0107	283.1047	31.4526	858.3827	-0.0592	0.0182	-0.0073	-0.0462	0.0165	0.9585
16.0873	0.16479	-0.42977	-0.034829	0.089708	-0.027133	-0.29789	-8.766	882.3883	-29.764	288.6311	29.7671	872.3019	-0.0592	0.0182	-0.0073	-0.0462	0.0165	0.9585
16.1085	0.21458	-0.48967	-0.047039	0.10203	-0.0010864	-0.33687	-8.2492	889.2082	-29.1209	290.8377	28.5927	876.5173	-0.0592	0.0182	-0.0073	-0.0462	0.0165	0.9585
16.1297	0.2101	-0.49751	-0.031475	0.10498	-0.0093543	-0.34564	-7.5332	886.1783	-28.9801	289.6787	27.858	870.9064	-0.0592	0.0182	-0.0073	-0.0462	0.0165	0.9585
16.1509	0.17287	-0.51849	-0.0017806	0.11614	-0.038572	-0.38085	-6.5781	874.4248	-29.1827	285.5638	27.4382	856.6049	-0.0592	0.0182	-0.0073	-0.0462	0.0165	0.9585
16.1721	0.12133	-0.61349	0.030779	0.15383	-0.076752	-0.50247	-5.3292	856.1291	-29.5556	279.2658	27.1812	835.7592	-0.0592	0.0182	-0.0073	-0.0462	0.0165	0.9585
16.1934	0.072387	-0.83881	0.058723	0.23537	-0.1119	-0.76392	-3.7204	834.0863	-29.9456	271.7582	26.9323	811.0985	-0.0592	0.0182	-0.0073	-0.0462	0.0165	0.9585
16.2146	0.04038	-1.2382	0.074539	0.37558	-0.13168	-1.2071	-1.7053	811.1016	-30.2683	263.9996	26.5854	785.3671	-0.0592	0.0182	-0.0073	-0.0462	0.0165	0.9585
16.2358	0.034539	-1.8365	0.070693	0.58406	-0.12484	-1.861	0.71237	789.4424	-30.5397	256.7467	26.1291	760.8023	-0.0592	0.0182	-0.0073	-0.0462	0.0165	0.9585
16.257	0.062548	-2.6286	0.040578	0.86098	-0.077199	-2.7209	3.4762	770.5579	-30.8622	250.4639	25.646	738.8637	-0.0592	0.0182	-0.0073	-0.0462	0.0165	0.9585
16.2782	0.13261	-3.5535	-0.019308	1.1879	0.020344	-3.7207	6.4938	755.0879	-31.3723	245.3382	25.2664	720.2394	-0.0592	0.0182	-0.0073	-0.0462	0.0165	0.9585
16.2994	0.24738	-4.4652	-0.10849	1.5155	0.16911	-4.701	9.645	743.0585	-32.1793	241.358	25.1141	705.0287	-0.0592	0.0182	-0.0073	-0.0462	0.0165	0.9585
16.3206	0.40271	-5.1061	-0.22071	1.755	0.3619	-5.3659	12.8031	734.1273	-33.3375	238.3985	25.2732	692.9637	-0.0592	0.0182	-0.0073	-0.0462	0.0165	0.9585
16.3419	0.58978	-5.0675	-0.34155	1.766	0.57526	-5.2558	15.8648	727.8188	-34.8502	236.2975	25.7764	683.6197	-0.0592	0.0182	-0.0073	-0.0462	0.0165	0.9585
16.3631	0.7839	-3.7688	-0.44467	1.3479	0.76132	-3.7272	18.7363	723.6741	-36.6692	234.9056	26.6061	676.5629	-0.0592	0.0182	-0.0073	-0.0462	0.0165	0.9585
16.3843	0.93233	-0.46259	-0.48174	0.23821	0.83975	0.042542	21.3146	721.3147	-38.7041	234.1073	27.7105	671.4235	-0.0592	0.0182	-0.0073	-0.0462	0.0165	0.9585
16.4055	0.95473	5.7102	-0.37834	-1.8707	0.6948	6.9929	23.4862	720.418	-40.8336	233.8092	29.0145	667.8776	-0.0592	0.0182	-0.0073	-0.0462	0.0165	0.9585
16.4267	0.7417	15.5904	-0.032781	-5.2858	0.17242	18.0276	25.144	720.6218	-42.9102	233.9056	30.4183	665.5674	-0.0592	0.0182	-0.0073	-0.0462	0.0165	0.9585
16.4479	0.17046	29.7899	0.67228	-10.2398	-0.90066	33.7806	26.2107	721.3975	-44.7629	234.2334	31.7926	663.9896	-0.0592	0.0182	-0.0073	-0.0462	0.0165	0.9585
16.4691	-0.76221	48.498	1.8293	-16.8159	-2.6259	54.419	26.6628	721.8731	-46.2208	234.5112	32.9899	662.338	-0.0592	0.0182	-0.0073	-0.0462	0.0165	0.9585
16.4904	-1.9318	71.1898	3.4742	-24.8397	-4.9854	79.3269	26.5482	720.714	-47.1359	234.2985	33.8589	659.3911	-0.0592	0.0182	-0.0073	-0.0462	0.0165	0.9585
16.5116	-3.1675	96.4253	5.5705	-33.802	-7.8658	106.9147	25.9682	716.2281	-47.398	233.0307	34.2641	653.608	-0.0592	0.0182	-0.0073	-0.0462	0.0165	0.9585
16.5328	-4.3771	121.856	7.9749	-42.8565	-11.069	134.6738	25.0367	706.7844	-46.9548	230.1582	34.1209	643.5119	-0.0592	0.0182	-0.0073	-0.0462	0.0165	0.9585
16.554	-5.5126	144.757	10.3869	-51.0158	-14.2454	159.7482	23.8733	691.3791	-45.8428	225.3334	33.4307	628.1927	-0.0592	0.0182	-0.0073	-0.0462	0.0165	0.9585
16.5752	-6.5445	163.9415	12.4356	-57.8446	-16.9827	180.9313	22.6409	670.1017	-44.2	218.5665	32.2807	607.7109	-0.0592	0.0182	-0.0073	-0.0462	0.0165	0.9585
16.5964	-7.5401	180.6785	13.9533	-63.7813	-19.127	199.6059	21.5296	644.0774	-42.206	210.2142	30.7869	583.0423	-0.0592	0.0182	-0.0073	-0.0462	0.0165	0.9585
16.6176	-8.6159	197.2652	15.0456	-69.6286	-20.8328	218.2086	20.6659	614.8648	-39.9797	200.79	29.032	555.5617	-0.0592	0.0182	-0.0073	-0.0462	0.0165	0.9585
